<svg t="1723444811237" class="icon" viewBox="0 0 1024 1024" version="1.1" xmlns="http://www.w3.org/2000/svg" p-id="887" width="16" height="16"><path d="M813.460932 1024H210.459137A210.299274 210.299274 0 0 1 0.399657 813.94052V210.938725A210.299274 210.299274 0 0 1 210.459137 0.879244h560.318476a13.987979 13.987979 0 1 1 0 27.975959H210.459137A182.28335 182.28335 0 0 0 28.375615 210.938725v603.001795a182.28335 182.28335 0 0 0 182.083522 182.083522h603.001795a182.28335 182.28335 0 0 0 182.083522-182.083522V258.058231a13.987979 13.987979 0 0 1 27.975958 0v555.882289a210.299274 210.299274 0 0 1-210.05948 210.05948z" p-id="888"></path><path d="M344.98353 597.566466a13.948013 13.948013 0 0 1-9.791586-23.979392L752.793068 163.859184a13.987979 13.987979 0 0 1 19.623137 19.982827L354.775115 593.569901a13.868082 13.868082 0 0 1-9.791585 3.996565zM488.700023 610.115682a13.987979 13.987979 0 0 1-9.871516-23.979393l149.311685-149.351651a13.987979 13.987979 0 0 1 19.982827 19.982827l-149.351651 149.351651a13.868082 13.868082 0 0 1-10.071345 3.996566zM471.594723 719.381781a13.987979 13.987979 0 0 1-9.791585-23.979392L879.484193 285.954258a13.987979 13.987979 0 0 1 19.623137 19.982827L481.46624 715.385216a13.868082 13.868082 0 0 1-9.871517 3.996565z" p-id="889"></path><path d="M891.633752 307.73554a13.868082 13.868082 0 0 1-9.711654-3.996566l-126.291468-122.254937a13.987979 13.987979 0 1 1 19.463274-19.982827L901.385372 283.756147a13.987979 13.987979 0 0 1-9.75162 23.979393zM824.771212 372.120209a13.987979 13.987979 0 0 1-9.711654-3.996565l-122.734525-118.098509a13.987979 13.987979 0 1 1 19.383343-19.982828l122.77449 118.018578a13.987979 13.987979 0 0 1-9.711654 23.979393zM471.594723 719.381781a13.788151 13.788151 0 0 1-9.671688-3.996565L335.311841 593.689798a13.987979 13.987979 0 0 1 19.383343-20.182656l126.691125 121.895247a13.987979 13.987979 0 0 1-9.711654 23.979392z" p-id="890"></path><path d="M306.256811 772.695964a13.388494 13.388494 0 0 1-3.03739-0.35969 13.948013 13.948013 0 0 1-10.590899-16.665678l38.1672-171.852315a13.987979 13.987979 0 1 1 27.296542 6.07478l-38.1672 171.852314a14.027945 14.027945 0 0 1-13.668253 10.950589z" p-id="891"></path><path d="M305.537429 772.695964a13.987979 13.987979 0 0 1-4.276325-27.296542l166.337054-53.15432a13.987979 13.987979 0 1 1 8.512684 26.617126l-166.177191 53.15432a14.227773 14.227773 0 0 1-4.396222 0.679416z" p-id="892"></path></svg>